{
	"asset":{
		"generator":"Khronos glTF Blender I/O v4.0.44",
		"version":"2.0"
	},
	"scene":0,
	"scenes":[
		{
			"name":"Scene",
			"nodes":[
				0,
				1,
				2
			]
		}
	],
	"nodes":[
		{
			"mesh":0,
			"name":"Stubovi",
			"rotation":[
				0.5,
				0.5,
				-0.4999999403953552,
				0.5000000596046448
			],
			"scale":[
				0.009999999776482582,
				0.009999999776482582,
				0.009999999776482582
			]
		},
		{
			"mesh":1,
			"name":"Ograda",
			"rotation":[
				0.5,
				0.5,
				-0.4999999403953552,
				0.5000000596046448
			],
			"scale":[
				0.009999999776482582,
				0.009999999776482582,
				0.009999999776482582
			]
		},
		{
			"mesh":2,
			"name":"Srafovi",
			"rotation":[
				0.5,
				0.5,
				-0.4999999403953552,
				0.5000000596046448
			],
			"scale":[
				0.009999999776482582,
				0.009999999776482582,
				0.009999999776482582
			]
		}
	],
	"materials":[
		{
			"doubleSided":true,
			"name":"Bankina_Default",
			"normalTexture":{
				"index":0,
				"scale":0.10000000149011612
			},
			"pbrMetallicRoughness":{
				"baseColorTexture":{
					"index":1
				},
				"metallicRoughnessTexture":{
					"index":2
				}
			}
		},
		{
			"doubleSided":true,
			"name":"surface.Lim_Ograda",
			"normalTexture":{
				"index":3,
				"scale":0.10000000149011612
			},
			"pbrMetallicRoughness":{
				"baseColorTexture":{
					"index":4
				},
				"metallicFactor":0.8409091234207153,
				"roughnessFactor":0.40278640389442444
			}
		},
		{
			"doubleSided":true,
			"name":"surface.OgradaLim_Pozadi",
			"normalTexture":{
				"index":5
			},
			"pbrMetallicRoughness":{
				"baseColorTexture":{
					"index":6
				},
				"metallicFactor":0.1818181872367859,
				"roughnessFactor":0.6846046447753906
			}
		},
		{
			"doubleSided":true,
			"name":"surface.Srafovi",
			"normalTexture":{
				"index":7,
				"scale":6.399999618530273
			},
			"pbrMetallicRoughness":{
				"baseColorTexture":{
					"index":8
				},
				"metallicFactor":0,
				"roughnessFactor":0.5527864098548889
			}
		}
	],
	"meshes":[
		{
			"name":"Stubovi",
			"primitives":[
				{
					"attributes":{
						"POSITION":0,
						"NORMAL":1,
						"TEXCOORD_0":2,
						"TEXCOORD_1":3
					},
					"indices":4,
					"material":0
				}
			]
		},
		{
			"name":"Ograda",
			"primitives":[
				{
					"attributes":{
						"POSITION":5,
						"NORMAL":6,
						"TEXCOORD_0":7,
						"TEXCOORD_1":8
					},
					"indices":9,
					"material":1
				},
				{
					"attributes":{
						"POSITION":10,
						"NORMAL":11,
						"TEXCOORD_0":12,
						"TEXCOORD_1":13
					},
					"indices":14,
					"material":2
				}
			]
		},
		{
			"name":"Stubovi.002",
			"primitives":[
				{
					"attributes":{
						"POSITION":15,
						"NORMAL":16,
						"TEXCOORD_0":17,
						"TEXCOORD_1":18
					},
					"indices":19,
					"material":3
				}
			]
		}
	],
	"textures":[
		{
			"sampler":0,
			"source":0
		},
		{
			"sampler":0,
			"source":1
		},
		{
			"sampler":0,
			"source":2
		},
		{
			"sampler":0,
			"source":0
		},
		{
			"sampler":0,
			"source":3
		},
		{
			"sampler":0,
			"source":0
		},
		{
			"sampler":0,
			"source":3
		},
		{
			"sampler":0,
			"source":0
		},
		{
			"sampler":0,
			"source":4
		}
	],
	"images":[
		{
			"mimeType":"image/png",
			"name":"Paint_Thick_NM",
			"uri":"Paint_Thick_NM.png"
		},
		{
			"mimeType":"image/png",
			"name":"Stub",
			"uri":"Stub.png"
		},
		{
			"mimeType":"image/png",
			"name":"Stub_ML-Stub_RS",
			"uri":"Stub_ML-Stub_RS.png"
		},
		{
			"mimeType":"image/png",
			"name":"Metal_Galvanized_CM",
			"uri":"Metal_Galvanized_CM.png"
		},
		{
			"mimeType":"image/png",
			"name":"Metal_Rusty_01",
			"uri":"Metal_Rusty_01.png"
		}
	],
	"accessors":[
		{
			"bufferView":0,
			"componentType":5126,
			"count":432,
			"max":[
				414.9932861328125,
				15.01007080078125,
				0.9364139437675476
			],
			"min":[
				-414.9993896484375,
				-14.99939250946045,
				-123.13530731201172
			],
			"type":"VEC3"
		},
		{
			"bufferView":1,
			"componentType":5126,
			"count":432,
			"type":"VEC3"
		},
		{
			"bufferView":2,
			"componentType":5126,
			"count":432,
			"type":"VEC2"
		},
		{
			"bufferView":3,
			"componentType":5126,
			"count":432,
			"type":"VEC2"
		},
		{
			"bufferView":4,
			"componentType":5123,
			"count":702,
			"type":"SCALAR"
		},
		{
			"bufferView":5,
			"componentType":5126,
			"count":296,
			"max":[
				450.4173278808594,
				17.477493286132812,
				-32.705474853515625
			],
			"min":[
				-450.3448486328125,
				12.707453727722168,
				-109.33716583251953
			],
			"type":"VEC3"
		},
		{
			"bufferView":6,
			"componentType":5126,
			"count":296,
			"type":"VEC3"
		},
		{
			"bufferView":7,
			"componentType":5126,
			"count":296,
			"type":"VEC2"
		},
		{
			"bufferView":8,
			"componentType":5126,
			"count":296,
			"type":"VEC2"
		},
		{
			"bufferView":9,
			"componentType":5123,
			"count":780,
			"type":"SCALAR"
		},
		{
			"bufferView":10,
			"componentType":5126,
			"count":112,
			"max":[
				450.4173278808594,
				16.211013793945312,
				-32.705474853515625
			],
			"min":[
				-450.3448486328125,
				12.707453727722168,
				-109.33716583251953
			],
			"type":"VEC3"
		},
		{
			"bufferView":11,
			"componentType":5126,
			"count":112,
			"type":"VEC3"
		},
		{
			"bufferView":12,
			"componentType":5126,
			"count":112,
			"type":"VEC2"
		},
		{
			"bufferView":13,
			"componentType":5126,
			"count":112,
			"type":"VEC2"
		},
		{
			"bufferView":14,
			"componentType":5123,
			"count":252,
			"type":"SCALAR"
		},
		{
			"bufferView":15,
			"componentType":5126,
			"count":1080,
			"max":[
				410.113525390625,
				16.082763671875,
				-47.3435173034668
			],
			"min":[
				-409.783935546875,
				13.4552001953125,
				-94.51107788085938
			],
			"type":"VEC3"
		},
		{
			"bufferView":16,
			"componentType":5126,
			"count":1080,
			"type":"VEC3"
		},
		{
			"bufferView":17,
			"componentType":5126,
			"count":1080,
			"type":"VEC2"
		},
		{
			"bufferView":18,
			"componentType":5126,
			"count":1080,
			"type":"VEC2"
		},
		{
			"bufferView":19,
			"componentType":5123,
			"count":2160,
			"type":"SCALAR"
		}
	],
	"bufferViews":[
		{
			"buffer":0,
			"byteLength":5184,
			"byteOffset":0,
			"target":34962
		},
		{
			"buffer":0,
			"byteLength":5184,
			"byteOffset":5184,
			"target":34962
		},
		{
			"buffer":0,
			"byteLength":3456,
			"byteOffset":10368,
			"target":34962
		},
		{
			"buffer":0,
			"byteLength":3456,
			"byteOffset":13824,
			"target":34962
		},
		{
			"buffer":0,
			"byteLength":1404,
			"byteOffset":17280,
			"target":34963
		},
		{
			"buffer":0,
			"byteLength":3552,
			"byteOffset":18684,
			"target":34962
		},
		{
			"buffer":0,
			"byteLength":3552,
			"byteOffset":22236,
			"target":34962
		},
		{
			"buffer":0,
			"byteLength":2368,
			"byteOffset":25788,
			"target":34962
		},
		{
			"buffer":0,
			"byteLength":2368,
			"byteOffset":28156,
			"target":34962
		},
		{
			"buffer":0,
			"byteLength":1560,
			"byteOffset":30524,
			"target":34963
		},
		{
			"buffer":0,
			"byteLength":1344,
			"byteOffset":32084,
			"target":34962
		},
		{
			"buffer":0,
			"byteLength":1344,
			"byteOffset":33428,
			"target":34962
		},
		{
			"buffer":0,
			"byteLength":896,
			"byteOffset":34772,
			"target":34962
		},
		{
			"buffer":0,
			"byteLength":896,
			"byteOffset":35668,
			"target":34962
		},
		{
			"buffer":0,
			"byteLength":504,
			"byteOffset":36564,
			"target":34963
		},
		{
			"buffer":0,
			"byteLength":12960,
			"byteOffset":37068,
			"target":34962
		},
		{
			"buffer":0,
			"byteLength":12960,
			"byteOffset":50028,
			"target":34962
		},
		{
			"buffer":0,
			"byteLength":8640,
			"byteOffset":62988,
			"target":34962
		},
		{
			"buffer":0,
			"byteLength":8640,
			"byteOffset":71628,
			"target":34962
		},
		{
			"buffer":0,
			"byteLength":4320,
			"byteOffset":80268,
			"target":34963
		}
	],
	"samplers":[
		{
			"magFilter":9729,
			"minFilter":9987
		}
	],
	"buffers":[
		{
			"byteLength":84588,
			"uri":"Bankina.bin"
		}
	]
}
